<svg xmlns="http://www.w3.org/2000/svg" viewBox="0 0 25.89 19.4">
  <title>Dire Team</title>
  <defs>
    <style>
      .bg {
        fill: #9f472c;
      }

      .back-spire {
        fill: #7c3628;
      }

      .orb {
        fill: #f69a61;
        stroke: #f8995e;
        stroke-miterlimit: 10;
        stroke-width: 0.11px;
      }

      .front-spire {
        fill: #544239;
      }

      .fg {
        fill: #010101;
      }

      .wrapper-triangle {
        fill: #711612;
      }
    </style>
  </defs>
  <path class="bg"
    d="M11.68,3.9l-8,10A1,1,0,0,0,3.9,17.36H23a1.56,1.56,0,0,0,1-1l-8-11A1.56,1.56,0,0,0,11.68,3.9Z" />
  <path class="back-spire"
    d="M14.6,6.51a1.45,1.45,0,0,0-.06-.9,2.93,2.93,0,0,0-.67-1.31h0c0-.14-.2-.13-.21,0a1.75,1.75,0,0,0-.06.6c0,.18.14.34.17.53a1.57,1.57,0,0,1,0,.61,4.93,4.93,0,0,1-.19.54A.4.4,0,0,0,13.7,7" />
  <ellipse class="orb" cx="14.05" cy="12.38" rx="3.94" ry="4.27" />
  <path class="front-spire"
    d="M18.63,13.05a2.51,2.51,0,0,0-.62-.83,4,4,0,0,1-.67-1c-.19-.39-.32-.81-.47-1.21a.16.16,0,0,0,0-.07,4.31,4.31,0,0,0-.06-.8c0-.29,0-.58,0-.88a2.45,2.45,0,0,0-.18-.8l-.18-.38a1.14,1.14,0,0,0-.18-.3c-.06-.17-.26-.29-.4-.39h0a.2.2,0,0,0-.11-.06.2.2,0,0,0-.26.15.91.91,0,0,0,.05.49,1.21,1.21,0,0,1,.12.41,2.23,2.23,0,0,1-.12.51,1.05,1.05,0,0,0,0,.5,2,2,0,0,0,.51.76,3.13,3.13,0,0,0,.24.71A5.65,5.65,0,0,1,16.6,11c.09.39.19.77.3,1.16a2.59,2.59,0,0,1,.13.55c0,.21,0,.41,0,.61a1.18,1.18,0,0,0,.08.53.84.84,0,0,0,.3.45.8.8,0,0,0,.53,0,1.62,1.62,0,0,0,.51-.25.66.66,0,0,0,.29-.44A1.64,1.64,0,0,0,18.63,13.05Z" />
  <path
    class="fg"
    fill="#000000"
    d="M25.35,15,15.16,1.13a2.74,2.74,0,0,0-4.44,0L.54,15A2.75,2.75,0,0,0,2.76,19.4H23.13A2.75,2.75,0,0,0,25.35,15ZM3.64,14.87l8-11a1.56,1.56,0,0,1,2.53,0l8,11a1.55,1.55,0,0,1,.24,1.35,1.81,1.81,0,0,1-.33-.2.94.94,0,0,0-.35-.2c-.28-.08-.52.07-.79.11a1.19,1.19,0,0,0-.15-.18,1.24,1.24,0,0,1-.27-.29,2.32,2.32,0,0,0-.71-.57,3.94,3.94,0,0,1-.66-.63,1.69,1.69,0,0,1-.29-.41.73.73,0,0,0-.07-.19.47.47,0,0,1,0-.17.22.22,0,0,0-.44,0,.48.48,0,0,0-.21.13,1.87,1.87,0,0,1-1.12.43l-.18,0h-.11a.37.37,0,0,0-.18,0,7.22,7.22,0,0,0-.11-1.48c-.14-.61-.82-.9-1.09-1.47-.66-1.4-.26-3.05-.79-4.5-.14-.37-.74-.46-.84,0a14.72,14.72,0,0,0-.23,3.11,5,5,0,0,0,0,.77.44.44,0,0,0,.13.29,3.46,3.46,0,0,0-.15.89,1.35,1.35,0,0,0,.24.73,2.38,2.38,0,0,0,.29.27l-.13.48a1.28,1.28,0,0,0-.25.15,2.34,2.34,0,0,0-.59.7c0,.06-.18.38-.24.4a3.57,3.57,0,0,1-.46-.16,5.19,5.19,0,0,1-1.15-.64c-.65-.49.5-1.31.7-1.85a1.62,1.62,0,0,0,0-.9c-.08-.38-.15-.72-.2-1.11A.83.83,0,0,0,11.09,9a.59.59,0,0,1-.51-.43,2.7,2.7,0,0,1-.12-.69,2.81,2.81,0,0,1,.07-.71,1.31,1.31,0,0,0,.08-.7.16.16,0,0,0-.2-.12,1.08,1.08,0,0,0-.59.71,2.81,2.81,0,0,0-.18.86,1.19,1.19,0,0,0,0,.93A.38.38,0,0,0,9.73,9a.26.26,0,0,0,.21.13h0a.88.88,0,0,1,.29.25,1.26,1.26,0,0,1,.1.38,6.06,6.06,0,0,1,.05.85c-.26,0-.51.15-.55.46a2.83,2.83,0,0,0,0,.58l0,.19-.06,0A1.79,1.79,0,0,0,9,11.76a.44.44,0,0,0-.12.86,1.52,1.52,0,0,0,.28.09,0,0,0,0,1,0,0c.07.23-.11.32-.29.4a4.4,4.4,0,0,0-.56.31,4.3,4.3,0,0,0-.56.42,2.69,2.69,0,0,0-1,.81,8.25,8.25,0,0,0-.65.67l-.26.22a2.14,2.14,0,0,0-.59.85c-.27.1-.58.15-.53-.16s.06-1.2-.65-.49a2.58,2.58,0,0,1-.71.47A1.53,1.53,0,0,1,3.64,14.87Zm6.61-6.26h0v0Z" />
  <path class="wrapper-triangle"
    d="M12.94.55a2.19,2.19,0,0,1,1.78.9l10.19,13.9a2.21,2.21,0,0,1-1.78,3.51H2.76A2.21,2.21,0,0,1,1,15.35L11.17,1.45a2.18,2.18,0,0,1,1.77-.9m0-.55a2.75,2.75,0,0,0-2.22,1.13L.54,15A2.75,2.75,0,0,0,2.76,19.4H23.13A2.75,2.75,0,0,0,25.35,15L15.16,1.13A2.73,2.73,0,0,0,12.94,0Z" />
</svg>