<svg xmlns="http://www.w3.org/2000/svg" viewBox="0 0 295.41 295.41">
  <path d="M17.94,277.48L17.94 259.8 25 252.74 25 42.84 0 42.84 0 282.91 6.25 289.16 12.5 282.91 17.94 277.48z" class="r-o"></path>
  <path d="M42.68,270.41L35.61 277.48 17.94 277.48 12.5 282.91 6.25 289.16 12.5 295.41 252.57 295.41 252.57 270.41 42.68 270.41z" class="r-s"></path>
  <path d="M35.61,277.48L148.95 164.14 131.27 146.47 17.94 259.8 17.94 277.48 35.61 277.48z" class="r-m"></path>
  <path d="M277.48,17.94L277.48 35.61 270.41 42.68 270.41 252.57 295.41 252.57 295.41 12.5 289.16 6.25 282.91 12.5 277.48 17.94z" class="d-o"></path>
  <path d="M252.74,25L259.8 17.94 277.48 17.94 282.91 12.5 289.16 6.25 282.91 0 42.84 0 42.84 25 252.74 25z" class="d-s"></path>
  <path d="M259.8,17.94L146.47 131.27 164.14 148.95 277.48 35.61 277.48 17.94 259.8 17.94z" class="d-m"></path>
</svg>