<svg version="1.1" id="Layer_1" xmlns="http://www.w3.org/2000/svg" xmlns:xlink="http://www.w3.org/1999/xlink" x="0px" y="0px"
	 viewBox="0 0 23.8 23.8" style="enable-background:new 0 0 23.8 23.8;" xml:space="preserve">
  <title>Radiant Team</title>
	<defs>
		<style type="text/css">
			.st0{fill:#B5B053;}
			.st1{fill:#040100;}
			.st2{fill:#98BEBF;}
			.st3{fill:#A5CECC;}
			.st4{fill:#711612;}
		</style>
	</defs>
<circle class="st0" cx="11.9" cy="11.6" r="9.4"/>
<path d="M12.8,4.1c0-0.3-0.1-0.7-0.4-0.8c-0.1,0-0.3,0.1-0.3,0.2c0,0.4,0,0.8,0,1.2c0,0.1,0,0.2,0,0.2C12,5,12,5,12,5
	c-0.1,0-0.3,0-0.4,0.1c-0.2,0.3,0,0.7,0.1,0.9c0.1,0.2,0.1,0.3,0.1,0.5c0,0.2,0,0.4-0.1,0.6c0,0.1,0,0.1,0.1,0.2
	c0,0.2,0.3,0.3,0.4,0.1c0.2-0.3,0.3-0.7,0.4-1c0.1-0.4,0-0.8,0.1-1.2c0-0.2,0.1-0.4,0.1-0.5C12.9,4.5,12.9,4.3,12.8,4.1z"/>
<path class="st1" d="M18.6,11.8c-0.1-0.1-0.1-0.2-0.2-0.4c-0.1-0.3-0.2-0.6-0.3-0.9c-0.1-0.2-0.3-0.5-0.5-0.6c0,0,0,0,0,0
	c0,0,0,0,0,0c0.1-0.2,0.1-0.4,0.3-0.6c0.1-0.1,0.1-0.1,0.2-0.2c0.1-0.2,0.2-0.4,0.1-0.6c0-0.2,0-0.4,0.2-0.6
	c0.2-0.1,0.1-0.4-0.1-0.4c0,0-0.1,0-0.1,0c0,0,0,0,0,0c0,0,0,0,0,0c-0.2,0.1-0.4,0.3-0.5,0.5c-0.1,0.1-0.1,0.3-0.1,0.5
	c0,0.1,0,0.2,0,0.3C17.5,9,17.5,9,17.4,9c-0.1,0-0.4,0.2-0.5,0.1c-0.1-0.1-0.1-0.4-0.1-0.6c0-0.3,0-0.6-0.1-0.9c0,0,0,0,0,0
	c0-0.1-0.1-0.3-0.1-0.4c0-0.1-0.1-0.2-0.2-0.3c0,0,0,0,0,0c-0.1-0.2-0.2-0.4-0.4-0.6c-0.3-0.2-0.6-0.3-0.9-0.4
	c-0.1-0.1-0.5-0.2-0.7-0.3c0,0,0,0,0,0c0-0.1,0-0.3-0.1-0.4c-0.1-0.3-0.7-0.4-0.8,0c-0.1,0.3,0,0.5,0,0.6c0,0.2,0.1,0.4,0.3,0.5
	c0.3,0.2,0.6,0.3,0.8,0.6c0.2,0.3,0.1,0.7,0.1,1c0,0.4,0,0.7-0.2,1l-0.9-0.4c0-0.2,0-0.2,0-0.3c0-0.2,0-0.3,0-0.5
	c0-0.2,0-0.3-0.1-0.4c0-0.1,0-0.1,0-0.2c0-0.1-0.1-0.1-0.2-0.1c0,0-0.1-0.1-0.1-0.1c-0.1,0-0.2,0-0.3,0.2c-0.1,0.3-0.1,0.5-0.1,0.9
	l-2.2-0.1c0-0.1,0.1-0.4,0-0.7c-0.1-0.2-0.3-0.2-0.4-0.4c-0.1-0.1-0.1-0.3-0.2-0.4C10,6,10.1,5.6,10.3,5.2c0.1-0.2,0-0.4-0.2-0.5
	C9.6,4.5,9,4.7,8.7,5.1C8.5,5.5,8.5,5.9,8.6,6.3c0,0.1-0.1,0.1-0.1,0.2C8.4,6.5,8.3,6.6,8.2,6.6c0,0,0,0,0,0c0,0,0,0,0,0
	c0,0,0,0,0,0c0,0,0,0,0,0c0,0,0,0,0,0c0,0,0,0,0,0c0,0,0,0,0,0c0,0,0,0,0,0C7.9,6.4,7.6,6.2,7.4,6.4c-0.2,0.1-0.2,0.3,0,0.5
	C7.5,6.9,7.6,6.9,7.8,7C8,7.1,8.3,7.1,8.6,7.2c0,0,0,0,0,0c0,0.5,0,1.1,0.1,1.6L7.5,11c0-0.5-0.6-0.4-0.3-0.7C7.4,9.9,7.8,9.6,8,9.3
	c0.3-0.4,0.5-0.8,0.4-1.2c0-0.4-0.6-0.4-0.6-0.1C7.6,8.1,7.5,8.4,7.4,8.7C7.3,8.9,7.1,8.9,7,9C6.8,9.2,6.6,9.4,6.5,9.6
	C6.4,9.8,6.2,10,6.1,10.2c-0.1,0.2-0.1,0.4-0.1,0.7C6,11.5,6,12.4,6,13l9.9-2.6c0,0.3,0,0.5,0.1,0.8c0.1,0.4,0.1,0.9,0.4,1.2
	c0.2,0.3,0.6,0.4,1,0.4c0.6,0.1,0.6-0.8,0-0.9c-0.1,0-0.1,0-0.2-0.1c-0.2-0.4-0.2-0.7-0.1-1.1c0-0.1,0-0.2,0-0.3
	c0.1,0,0.2-0.1,0.4-0.1c0.2,0.1,0.3,0.3,0.4,0.4c0,0.1,0.1,0.1,0.1,0.2c0,0,0,0,0,0c0,0.2,0.1,0.3,0.2,0.5c0,0,0,0.1,0,0.1
	c0,0.2,0.1,0.4,0,0.5c0,0.2,0.2,0.3,0.4,0.2c0.1,0.1,0.1,0.3,0.2,0.4c0,0.1,0.1,0.2,0.3,0.2c0.1,0,0.2-0.2,0.2-0.3
	C18.9,12.4,18.8,12.1,18.6,11.8z"/>
<path class="st2" d="M16.7,13.9c0-3.4-2.3-6.1-5.2-6.1s-5.2,2.7-5.2,6.1s2.3,3.8,5.2,3.8S16.7,17.3,16.7,13.9z"/>
<path class="st3" d="M12.6,8C12.6,8,12.6,8,12.6,8c-0.4-0.2-0.8-0.2-1.2-0.2c-1.9,0-3.6,1.2-4.5,3c0.2,0.7,0.5,1.1,1.6,1.1
	C10.2,11.9,13,9.9,12.6,8z"/>
<path d="M11.9,0.2C5.5,0.2,0.2,5.5,0.2,11.9c0,6.4,5.2,11.7,11.7,11.7s11.7-5.2,11.7-11.7C23.6,5.5,18.3,0.2,11.9,0.2z M2.8,13.7
	c0.1,0,0.2,0,0.3,0c0.2,0,0.3,0,0.5,0c0.1,0,0.1-0.1,0.2-0.1c0.2,0.1,0.5,0.1,0.7,0.2c0.3,0.2,0.4,0.5,0.1,0.7
	c-0.1,0.1-0.2,0.1-0.2,0.2c0,0,0,0,0,0c-0.1,0-0.3-0.1-0.4-0.1c-0.1-0.1-0.3-0.1-0.4-0.1c-0.2,0-0.3-0.1-0.5,0c0,0,0,0,0,0
	C2.9,14.2,2.8,13.9,2.8,13.7z M3.1,14.9c0.1,0,0.2,0,0.4,0.1c0.1,0,0.3,0.1,0.4,0.1c0.1,0.1,0.2,0.1,0.4,0.1c0,0.2,0.1,0.5,0.2,0.7
	c0,0,0,0,0,0c-0.1,0-0.1,0.1-0.2,0.1c0,0,0,0.1-0.1,0.1c0,0,0,0,0,0c0,0,0,0,0,0c0,0-0.1,0-0.1,0c0,0,0,0,0,0c-0.1,0-0.1,0-0.2,0
	C3.8,16.1,3.7,16,3.6,16C3.4,15.6,3.3,15.2,3.1,14.9z M19.9,15.1c-0.1-0.3,0.1-0.3,0.1-0.4c0,0,0,0,0,0c0,0,0.1-0.1,0.1-0.1
	c0,0,0,0,0,0c0,0,0,0,0-0.1c0.1-0.1,0.1-0.1,0.2-0.2c0,0,0,0,0,0c0,0,0,0,0,0c0,0,0,0,0.1,0c0,0,0.1-0.1,0.1-0.1c0,0,0.1,0,0.1-0.1
	c0,0,0,0,0,0c0,0,0,0,0,0c0,0,0,0,0.1,0c0,0,0.1,0,0.1,0c-0.1,0.5-0.3,0.9-0.5,1.4C20.2,15.5,20,15.5,19.9,15.1z M11.9,2.2
	c5.2,0,9.4,4.2,9.4,9.4c0,0.7-0.1,1.3-0.2,1.9c-0.1,0-0.2,0.1-0.3,0.1c0,0,0,0,0,0c0,0-0.1,0-0.1,0c0,0,0,0-0.1,0c0,0,0,0,0,0
	c0,0,0,0,0,0c0,0,0,0,0,0c0,0-0.1,0-0.1,0c0,0,0,0,0,0c0,0,0,0,0,0c0,0-0.1,0-0.1,0c0,0,0,0,0,0c0,0,0,0,0,0c-0.1,0-0.3-0.1-0.3-0.1
	c-0.1-0.1-0.2-0.1-0.3-0.2c-0.1-0.1-0.2-0.1-0.4-0.1c-0.1-0.2-0.2-0.4-0.3-0.6c-0.1-0.2-0.3-0.4-0.5-0.5c-0.1-0.1-0.3-0.1-0.4-0.1
	c-0.1,0-0.2,0-0.3,0c-0.1,0-0.3,0-0.4,0.1c-0.1,0-0.3,0.1-0.4,0.2c-0.2,0.1-0.4,0.3-0.6,0.5c-0.2,0.2-0.3,0.4-0.4,0.7
	C16,13.8,16,14,15.9,14.2c0,0,0,0.1,0,0.1c0,0.1-0.1,0.1-0.1,0.2c0,0,0,0-0.1,0c0,0-0.1,0-0.1,0c-0.1,0-0.1-0.1-0.2-0.1
	c-0.3-0.1-0.6,0.2-0.5,0.5c-0.1,0-0.1,0-0.2,0c-0.2-0.3-0.7-0.3-0.8,0.1c0,0,0,0,0,0c-0.1,0-0.2,0-0.2,0c-0.1,0-0.1,0-0.2,0
	c0-0.1,0-0.2,0-0.3c0,0,0-0.1,0.1-0.1c0.1-0.1,0.2-0.3,0.2-0.5c0-0.1-0.1-0.2-0.2-0.2c-0.1,0-0.1,0-0.2,0.1c0,0,0,0,0,0
	c-0.1,0.1-0.3,0.2-0.5,0.4c-0.1,0-0.2,0-0.2,0c-0.2,0-0.3,0.1-0.4,0.3c-0.1,0.1-0.2,0.2-0.2,0.3c-0.1,0.1-0.2,0.1-0.3,0.1
	c-0.2,0-0.3,0-0.5,0c0,0,0,0,0,0c0,0,0,0-0.1,0c0,0-0.1,0-0.1-0.1c0,0,0,0,0,0c0.2-0.7,0.4-1.4,0.3-2.1c0-0.2-0.1-0.5-0.2-0.7
	c0-0.2-0.1-0.3-0.1-0.5c-0.3-0.6-1.1-0.6-1.7-0.6c0,0,0,0,0,0c0,0,0,0,0,0c-0.1,0-0.2,0-0.2,0c-0.3,0.1-0.6,0.4-0.6,0.7c0,0,0,0,0,0
	c-0.1,0.1-0.1,0.3-0.2,0.4c0,0.1,0,0.3-0.1,0.4c0,0,0,0,0,0.1c0,0.1,0,0.1,0,0.2c0,0,0,0.1,0,0.1c-0.1,0-0.2,0-0.4,0
	c-0.4,0.1-0.6,0.5-0.8,0.7C6.9,14.2,6.7,14,6.7,14c-0.3,0-0.4-1.3-0.4-1.3c0-0.1-0.1-0.3-0.1-0.3c0.1-0.2-0.1-0.4-0.3-0.3
	c-0.1,0.1-0.2,0-0.3-0.1c-0.1-0.2-0.4-0.1-0.4,0.1c0,0.2,0,0.4,0,0.5c-0.1,0.2-0.3,0.1-0.5,0c-0.2-0.1-0.3-0.2-0.5-0.3
	c-0.1-0.1-0.3-0.2-0.4-0.2c-0.5,0-0.6,0.6-0.4,1c0,0,0,0,0,0c-0.1,0-0.3,0-0.4,0c-0.1,0-0.2,0-0.3,0c-0.1-0.5-0.2-1.1-0.2-1.6
	C2.5,6.4,6.7,2.2,11.9,2.2z"/>
<path class="st4" d="M11.9,23.8C5.3,23.8,0,18.5,0,11.9S5.3,0,11.9,0s11.9,5.3,11.9,11.9S18.5,23.8,11.9,23.8z M11.9,0.5
	C5.6,0.5,0.5,5.6,0.5,11.9s5.1,11.4,11.4,11.4s11.4-5.1,11.4-11.4S18.2,0.5,11.9,0.5z"/>
</svg>
